<svg width="177" height="41" viewBox="0 0 177 41" fill="none" xmlns="http://www.w3.org/2000/svg">
<path d="M60.5398 32.1449H56.9115V15.0688H60.5398V32.1449ZM56.6953 10.545C56.6953 9.89655 56.8703 9.39734 57.2203 9.04738C57.5805 8.69741 58.09 8.52243 58.7488 8.52243C59.3869 8.52243 59.881 8.69741 60.231 9.04738C60.5912 9.39734 60.7713 9.89655 60.7713 10.545C60.7713 11.1626 60.5912 11.6515 60.231 12.0118C59.881 12.3617 59.3869 12.5367 58.7488 12.5367C58.09 12.5367 57.5805 12.3617 57.2203 12.0118C56.8703 11.6515 56.6953 11.1626 56.6953 10.545Z" fill="black"/>
<path d="M80.889 23.576C80.889 26.3654 80.1737 28.5423 78.7429 30.1069C77.3122 31.6714 75.3205 32.4537 72.7678 32.4537C71.1724 32.4537 69.7623 32.0934 68.5374 31.3729C67.3126 30.6524 66.3707 29.618 65.712 28.2696C65.0532 26.9212 64.7239 25.3566 64.7239 23.576C64.7239 20.8071 65.4341 18.6456 66.8545 17.0914C68.2749 15.5371 70.2769 14.76 72.8605 14.76C75.3308 14.76 77.2865 15.5577 78.7275 17.1531C80.1685 18.7382 80.889 20.8792 80.889 23.576ZM68.4602 23.576C68.4602 27.5182 69.9167 29.4893 72.8296 29.4893C75.7116 29.4893 77.1527 27.5182 77.1527 23.576C77.1527 19.6749 75.7014 17.7244 72.7987 17.7244C71.2754 17.7244 70.1689 18.2287 69.4792 19.2375C68.7999 20.2462 68.4602 21.6923 68.4602 23.576Z" fill="black"/>
<path d="M84.5328 30.2149C84.5328 29.4636 84.7283 28.8871 85.1195 28.4857C85.5106 28.0843 86.0767 27.8836 86.8178 27.8836C87.5692 27.8836 88.1405 28.0946 88.5316 28.5166C88.9227 28.9283 89.1183 29.4944 89.1183 30.2149C89.1183 30.9458 88.9176 31.5273 88.5161 31.9596C88.125 32.3816 87.5589 32.5926 86.8178 32.5926C86.0767 32.5926 85.5106 32.3816 85.1195 31.9596C84.7283 31.5376 84.5328 30.956 84.5328 30.2149Z" fill="black"/>
<path d="M101.532 17.2149H97.224V32.1449H94.6611V17.2149H91.6349V16.0569L94.6611 15.1305V14.1887C94.6611 10.0304 96.4778 7.95117 100.111 7.95117C101.007 7.95117 102.057 8.1313 103.261 8.49155L102.597 10.545C101.609 10.2259 100.765 10.0664 100.065 10.0664C99.0974 10.0664 98.382 10.3906 97.9188 11.0391C97.4556 11.6772 97.224 12.7065 97.224 14.127V15.2232H101.532V17.2149ZM107.183 32.1449H104.62V15.2232H107.183V32.1449ZM104.403 10.6376C104.403 10.0509 104.548 9.62379 104.836 9.35617C105.124 9.07826 105.484 8.9393 105.916 8.9393C106.328 8.9393 106.683 9.07826 106.982 9.35617C107.28 9.63408 107.43 10.0612 107.43 10.6376C107.43 11.2141 107.28 11.6464 106.982 11.9346C106.683 12.2125 106.328 12.3514 105.916 12.3514C105.484 12.3514 105.124 12.2125 104.836 11.9346C104.548 11.6464 104.403 11.2141 104.403 10.6376Z" fill="black"/>
<path d="M124.197 32.1449V21.1983C124.197 19.819 123.883 18.7897 123.255 18.1104C122.627 17.431 121.644 17.0914 120.306 17.0914C118.536 17.0914 117.239 17.57 116.415 18.5272C115.592 19.4845 115.18 21.0645 115.18 23.2672V32.1449H112.617V15.2232H114.702L115.118 17.5391H115.242C115.767 16.7054 116.503 16.0621 117.45 15.6092C118.397 15.146 119.452 14.9144 120.615 14.9144C122.653 14.9144 124.187 15.4085 125.216 16.3966C126.245 17.3744 126.76 18.9441 126.76 21.1056V32.1449H124.197Z" fill="black"/>
<path d="M143.62 32.1449V21.1983C143.62 19.819 143.306 18.7897 142.678 18.1104C142.05 17.431 141.067 17.0914 139.729 17.0914C137.959 17.0914 136.662 17.57 135.838 18.5272C135.015 19.4845 134.603 21.0645 134.603 23.2672V32.1449H132.04V15.2232H134.124L134.541 17.5391H134.665C135.19 16.7054 135.926 16.0621 136.873 15.6092C137.82 15.146 138.875 14.9144 140.038 14.9144C142.076 14.9144 143.609 15.4085 144.639 16.3966C145.668 17.3744 146.183 18.9441 146.183 21.1056V32.1449H143.62Z" fill="black"/>
<path d="M158.612 32.4537C156.11 32.4537 154.134 31.692 152.683 30.1686C151.242 28.6453 150.521 26.5301 150.521 23.823C150.521 21.0953 151.19 18.9287 152.528 17.323C153.877 15.7172 155.683 14.9144 157.948 14.9144C160.068 14.9144 161.746 15.6143 162.981 17.0142C164.216 18.4037 164.834 20.241 164.834 22.5261V24.1472H153.177C153.228 26.1338 153.728 27.6417 154.674 28.671C155.632 29.7003 156.975 30.2149 158.704 30.2149C160.526 30.2149 162.327 29.8341 164.108 29.0724V31.3575C163.202 31.7486 162.343 32.0265 161.53 32.1912C160.727 32.3662 159.754 32.4537 158.612 32.4537ZM157.917 17.0605C156.558 17.0605 155.472 17.5031 154.659 18.3883C153.856 19.2735 153.383 20.4983 153.239 22.0629H162.085C162.085 20.4469 161.725 19.2117 161.005 18.3574C160.284 17.4928 159.255 17.0605 157.917 17.0605Z" fill="black"/>
<path d="M174.684 30.3385C175.137 30.3385 175.574 30.3076 175.996 30.2458C176.418 30.1738 176.753 30.1017 177 30.0297V31.9905C176.722 32.1243 176.31 32.2324 175.765 32.3147C175.23 32.4074 174.746 32.4537 174.314 32.4537C171.04 32.4537 169.404 30.7296 169.404 27.2814V17.2149H166.98V15.9797L169.404 14.9144L170.485 11.3015H171.967V15.2232H176.876V17.2149H171.967V27.1734C171.967 28.1924 172.209 28.9746 172.692 29.5202C173.176 30.0657 173.84 30.3385 174.684 30.3385Z" fill="black"/>
<path d="M0 16.8411C-7.19005e-08 14.6291 0.435749 12.4388 1.28236 10.3953C2.12897 8.35174 3.36986 6.49501 4.93415 4.93112C6.49844 3.36723 8.35549 2.12681 10.3992 1.28072C12.443 0.434627 14.6334 -0.00056344 16.8453 5.47475e-07H23.9476C26.1596 -0.00056344 28.35 0.434627 30.3937 1.28072C32.4375 2.12681 34.2945 3.36723 35.8588 4.93112C37.4231 6.49501 38.664 8.35174 39.5106 10.3953C40.3572 12.4388 40.793 14.6291 40.793 16.8411V23.9476C40.793 28.4153 39.0182 32.7 35.8591 35.8591C32.7 39.0182 28.4153 40.793 23.9476 40.793H16.8453C12.3777 40.793 8.093 39.0182 4.93389 35.8591C1.77477 32.7 0 28.4153 0 23.9476V16.8411Z" fill="white"/>
<path d="M20.9204 6.74588C13.7494 6.77594 8.08561 11.7913 7.17958 18.6531C6.73503 21.9216 7.51505 25.2389 9.36951 27.9668C10.1296 29.1391 11.3233 29.4182 12.3753 28.7183C13.3372 28.0656 13.5132 26.8504 12.8047 25.7125C8.97876 19.6579 12.2293 12.1907 19.2758 10.9411C20.234 10.823 21.2031 10.823 22.1613 10.9411C23.398 11.0313 24.377 10.4172 24.5746 9.3051C24.6234 9.03727 24.6172 8.76228 24.5563 8.49692C24.4955 8.23156 24.3812 7.98137 24.2205 7.76161C24.0598 7.54184 23.856 7.3571 23.6216 7.21865C23.3872 7.08019 23.127 6.99093 22.857 6.95629C22.216 6.84881 21.5694 6.77855 20.9204 6.74588Z" fill="#1F2123"/>
<path d="M33.9656 20.3493C33.9055 19.791 33.8496 18.9966 33.738 18.2023C33.5491 16.9527 32.5485 16.1368 31.4407 16.2828C31.1555 16.3067 30.8785 16.3907 30.6282 16.5295C30.3779 16.6683 30.1599 16.8587 29.9886 17.088C29.8173 17.3173 29.6967 17.5804 29.6346 17.8598C29.5725 18.1393 29.5705 18.4287 29.6286 18.7089C29.9471 20.54 29.757 22.4233 29.079 24.1537C27.3271 28.5851 22.711 30.891 17.949 29.8175C16.8454 29.5685 15.9394 29.9249 15.4584 30.7965C14.9775 31.6682 15.0591 32.7632 15.8578 33.257C16.6506 33.7453 17.5398 34.0558 18.4642 34.1673C26.2793 35.0648 32.789 29.9979 33.8797 22.2257C33.9226 21.6675 33.9226 21.1265 33.9656 20.3493Z" fill="#1F2123"/>
<path d="M26.3909 12.4569C26.4115 12.7925 26.5129 13.1183 26.6865 13.4063C26.8601 13.6943 27.1007 13.9361 27.3879 14.1111C27.6751 14.2861 28.0003 14.3891 28.3358 14.4114C28.6714 14.4336 29.0074 14.3745 29.3151 14.2389C29.5667 14.1245 29.7918 13.9593 29.9764 13.7537C30.1687 13.5494 30.3152 13.3064 30.4058 13.0409C30.4921 12.7796 30.5214 12.5028 30.4917 12.2293C30.4488 11.6894 30.1977 11.1873 29.7915 10.8292C29.3852 10.471 28.8556 10.2848 28.3146 10.3099C28.0437 10.3134 27.7764 10.373 27.5297 10.4852C27.2831 10.5973 27.0623 10.7593 26.8815 10.9611C26.7007 11.1629 26.5637 11.4001 26.4793 11.6575C26.3948 11.915 26.3647 12.1872 26.3909 12.4569Z" fill="#DF3737"/>
</svg>
